M48
;Layer_Color=9474304
;FILE_FORMAT=2:5
INCH,LZ
;TYPE=PLATED
T1F00S00C0.01500
T2F00S00C0.02800
T3F00S00C0.02953
T4F00S00C0.03000
T5F00S00C0.03937
T6F00S00C0.04331
T7F00S00C0.05906
%
T01
X0488583Y0193307
X04975Y01937
X0484Y02452
X0485433Y0256299
X04486Y02665
X0441Y027874
X0444882Y0299213
X04195Y03025
X04091Y02885
X0406083Y027834
X04037Y02622
X04148Y02607
X0426378Y0242913
X0372835Y0282283
X03327Y01932
X03097Y01942
T02
X0512598Y02
X0533943Y0283758
X0553543Y0283858
X0538Y03039
X0436843Y0273458
X0421358
X0435039Y0235433
X0434646Y0229921
X043937Y0233071
X0432Y0335
X04217Y03375
T03
X0576378Y026063
Y027063
Y028063
X0576378Y0309842
X0284016Y0337402
X0274016
X0446063Y0338189
X0456063
X0466063
X0476063
X0486063
X0496063
X0506063
X0516063
X0526063
X0536063
X0512992Y0314567
X0502992
X0492992
X0576378Y0319843
Y0329842
T04
X0393772Y01365
X04233
X0469672Y01361
X04992
T05
X057874Y021378
Y0233465
X03973Y02206
X03873
X03773
X0281102Y0224803
Y0205118
X0281496Y0181102
X0280696Y0275002
X03838Y03178
X03938
X04038
T06
X0337717Y0253465
X0347716
X0357716Y0273465
X0287717Y0303465
X0307716Y0323465
T07
X0287717Y0253465
X0357716Y0323465
M30
