G04 Layer_Color=65535*
%FSLAX25Y25*%
%MOIN*%
G70*
G01*
G75*
%ADD30C,0.01181*%
%ADD31C,0.01000*%
%ADD33C,0.02362*%
%ADD47C,0.00984*%
%ADD48C,0.00394*%
%ADD49C,0.00787*%
%ADD50C,0.01575*%
%ADD51C,0.00591*%
D30*
X269016Y342402D02*
X289764D01*
Y332402D02*
Y342402D01*
X269016Y332402D02*
X289764D01*
X269016D02*
Y342402D01*
X279016Y332402D02*
Y342402D01*
X263016Y340402D02*
X266016Y337402D01*
X263016Y334402D02*
Y340402D01*
Y334402D02*
X266016Y337402D01*
X263016D02*
X266016D01*
X263016Y335402D02*
Y335902D01*
X264516Y337402D01*
Y337902D01*
X264016Y338402D02*
X264516Y337902D01*
X264173Y326378D02*
X280709D01*
X264173Y292126D02*
Y326378D01*
Y292126D02*
X280709D01*
Y326378D01*
X299632Y341624D02*
X316168D01*
X299632Y307372D02*
Y341624D01*
Y307372D02*
X316168D01*
Y341624D01*
X323622Y280315D02*
Y293307D01*
X333858D01*
Y280315D02*
Y293307D01*
X323622Y280315D02*
X333858D01*
X333451Y223618D02*
X346443D01*
Y213382D02*
Y223618D01*
X333451Y213382D02*
X346443D01*
X333451D02*
Y223618D01*
X441063Y343189D02*
X541063D01*
Y333189D02*
Y343189D01*
X441063Y333189D02*
X541063D01*
X441063D02*
Y343189D01*
X451063Y333189D02*
Y343189D01*
X435063Y341189D02*
X438063Y338189D01*
X435063Y335189D02*
Y341189D01*
Y335189D02*
X438063Y338189D01*
X435063D02*
X438063D01*
X435063Y336189D02*
Y336689D01*
X436563Y338189D01*
Y338689D01*
X436063Y339189D02*
X436563Y338689D01*
X450787Y142126D02*
X504331D01*
X450787D02*
Y193307D01*
X504331D01*
Y142126D02*
Y193307D01*
X335433Y268898D02*
Y303150D01*
X351968D01*
Y268898D02*
Y303150D01*
X335433Y268898D02*
X351968D01*
X323576Y241668D02*
X357827D01*
Y225132D02*
Y241668D01*
X323576Y225132D02*
X357827D01*
X323576D02*
Y241668D01*
D31*
X477707Y233635D02*
G03*
X477707Y225565I4035J-4035D01*
G01*
X491093D02*
G03*
X491093Y233635I-4035J4035D01*
G01*
X514665Y195669D02*
G03*
X506595Y195669I-4035J-4035D01*
G01*
Y182283D02*
G03*
X514665Y182283I4035J4035D01*
G01*
X493209Y196457D02*
G03*
X501279Y196457I4035J4035D01*
G01*
Y209842D02*
G03*
X493209Y209842I-4035J-4035D01*
G01*
X569390Y267323D02*
G03*
X561319Y267323I-4035J-4035D01*
G01*
Y253937D02*
G03*
X569390Y253937I4035J4035D01*
G01*
X561319Y273622D02*
G03*
X569390Y273622I4035J4035D01*
G01*
Y287008D02*
G03*
X561319Y287008I-4035J-4035D01*
G01*
X507874Y327658D02*
G03*
X507874Y319587I4035J-4035D01*
G01*
X521260D02*
G03*
X521260Y327658I-4035J4035D01*
G01*
X503543Y319587D02*
G03*
X503543Y327658I-4035J4035D01*
G01*
X490158D02*
G03*
X490158Y319587I4035J-4035D01*
G01*
X427559Y231791D02*
G03*
X427559Y239862I-4035J4035D01*
G01*
X414173D02*
G03*
X414173Y231791I4035J-4035D01*
G01*
X402862Y305717D02*
G03*
X402862Y297646I4035J-4035D01*
G01*
X416248D02*
G03*
X416248Y305717I-4035J4035D01*
G01*
X375098Y279134D02*
G03*
X383169Y279134I4035J4035D01*
G01*
Y292520D02*
G03*
X375098Y292520I-4035J-4035D01*
G01*
X569390Y315748D02*
G03*
X561319Y315748I-4035J-4035D01*
G01*
Y302362D02*
G03*
X569390Y302362I4035J4035D01*
G01*
X561319Y322441D02*
G03*
X569390Y322441I4035J4035D01*
G01*
Y335827D02*
G03*
X561319Y335827I-4035J-4035D01*
G01*
X481496Y168898D02*
G03*
X489370Y168898I3937J0D01*
G01*
X473622D02*
G03*
X481496Y168898I3937J0D01*
G01*
X465748D02*
G03*
X473622Y168898I3937J0D01*
G01*
X327693Y189965D02*
G03*
X327693Y198035I-4035J4035D01*
G01*
X314307D02*
G03*
X314307Y189965I4035J-4035D01*
G01*
X453735Y254593D02*
G03*
X445665Y254593I-4035J-4035D01*
G01*
Y241207D02*
G03*
X453735Y241207I4035J4035D01*
G01*
X444235Y254693D02*
G03*
X436165Y254693I-4035J-4035D01*
G01*
Y241307D02*
G03*
X444235Y241307I4035J4035D01*
G01*
X537835Y321393D02*
G03*
X529765Y321393I-4035J-4035D01*
G01*
Y308007D02*
G03*
X537835Y308007I4035J4035D01*
G01*
X437593Y297765D02*
G03*
X437593Y305835I-4035J4035D01*
G01*
X424207D02*
G03*
X424207Y297765I4035J-4035D01*
G01*
X477707Y225565D02*
X491093D01*
X477707Y233635D02*
X491093D01*
X506594Y182283D02*
Y195669D01*
X514665Y182283D02*
Y195669D01*
X501280Y196457D02*
Y209843D01*
X493209Y196457D02*
Y209843D01*
X561319Y253937D02*
Y267323D01*
X569390Y253937D02*
Y267323D01*
Y273622D02*
Y287008D01*
X561319Y273622D02*
Y287008D01*
X507874Y319587D02*
X521260D01*
X507874Y327657D02*
X521260D01*
X490157D02*
X503543D01*
X490157Y319587D02*
X503543D01*
X414173Y239862D02*
X427559D01*
X414173Y231791D02*
X427559D01*
X402862Y297646D02*
X416248D01*
X402862Y305717D02*
X416248D01*
X383169Y279134D02*
Y292520D01*
X375098Y279134D02*
Y292520D01*
X561319Y302362D02*
Y315748D01*
X569390Y302362D02*
Y315748D01*
Y322441D02*
Y335827D01*
X561319Y322441D02*
Y335827D01*
X264961Y192913D02*
X296850D01*
Y234646D01*
X264961D02*
X296850D01*
X264961Y192913D02*
Y234646D01*
X375363Y249088D02*
X383237D01*
Y235112D02*
Y249088D01*
X375363Y235112D02*
Y249088D01*
Y235112D02*
X383237D01*
X376476Y300787D02*
Y308661D01*
X390453D01*
X376476Y300787D02*
X390453D01*
Y308661D01*
X482579Y251969D02*
Y259842D01*
X468602Y251969D02*
X482579D01*
X468602Y259842D02*
X482579D01*
X468602Y251969D02*
Y259842D01*
X467918Y234952D02*
Y242826D01*
X453942Y234952D02*
X467918D01*
X453942Y242826D02*
X467918D01*
X453942Y234952D02*
Y242826D01*
X474888Y225663D02*
Y233537D01*
X460912Y225663D02*
X474888D01*
X460912Y233537D02*
X474888D01*
X460912Y225663D02*
Y233537D01*
X484650Y234952D02*
Y242826D01*
X498627D01*
X484650Y234952D02*
X498627D01*
Y242826D01*
X483272Y234952D02*
Y242826D01*
X469296Y234952D02*
X483272D01*
X469296Y242826D02*
X483272D01*
X469296Y234952D02*
Y242826D01*
X314307Y198035D02*
X327693D01*
X314307Y189965D02*
X327693D01*
X445665Y241207D02*
Y254593D01*
X453735Y241207D02*
Y254593D01*
X436165Y241307D02*
Y254693D01*
X444235Y241307D02*
Y254693D01*
X529765Y308007D02*
Y321393D01*
X537835Y308007D02*
Y321393D01*
X424207Y305835D02*
X437593D01*
X424207Y297765D02*
X437593D01*
X315199Y204124D02*
X314674Y204649D01*
X313625D01*
X313100Y204124D01*
Y202025D01*
X313625Y201500D01*
X314674D01*
X315199Y202025D01*
X318348Y201500D02*
X316249D01*
X318348Y203599D01*
Y204124D01*
X317823Y204649D01*
X316773D01*
X316249Y204124D01*
X321496Y204649D02*
X319397D01*
Y203074D01*
X320447Y203599D01*
X320971D01*
X321496Y203074D01*
Y202025D01*
X320971Y201500D01*
X319922D01*
X319397Y202025D01*
X296851Y305906D02*
X300000D01*
Y307480D01*
X299475Y308005D01*
X297376D01*
X296851Y307480D01*
Y305906D01*
Y311153D02*
Y309054D01*
X298426D01*
X297901Y310104D01*
Y310628D01*
X298426Y311153D01*
X299475D01*
X300000Y310628D01*
Y309579D01*
X299475Y309054D01*
X315380Y305404D02*
Y302255D01*
X313806D01*
X313281Y302780D01*
Y303830D01*
X313806Y304354D01*
X315380D01*
X314331D02*
X313281Y305404D01*
X310133D02*
X312232D01*
X310133Y303305D01*
Y302780D01*
X310657Y302255D01*
X311707D01*
X312232Y302780D01*
X309083D02*
X308558Y302255D01*
X307509D01*
X306984Y302780D01*
Y304879D01*
X307509Y305404D01*
X308558D01*
X309083Y304879D01*
Y302780D01*
X283071Y297244D02*
X286220D01*
Y295670D01*
X285695Y295145D01*
X284645D01*
X284120Y295670D01*
Y297244D01*
Y296195D02*
X283071Y295145D01*
Y291996D02*
Y294095D01*
X285170Y291996D01*
X285695D01*
X286220Y292521D01*
Y293571D01*
X285695Y294095D01*
X283071Y290947D02*
Y289897D01*
Y290422D01*
X286220D01*
X285695Y290947D01*
X288401Y328251D02*
X289451D01*
X288926D01*
Y330875D01*
X289451Y331400D01*
X289975D01*
X290500Y330875D01*
X285777Y331400D02*
Y328251D01*
X287351Y329826D01*
X285252D01*
X539476Y311499D02*
X538951Y310974D01*
Y309925D01*
X539476Y309400D01*
X541575D01*
X542100Y309925D01*
Y310974D01*
X541575Y311499D01*
X542100Y314648D02*
Y312549D01*
X540001Y314648D01*
X539476D01*
X538951Y314123D01*
Y313073D01*
X539476Y312549D01*
X538951Y317796D02*
X539476Y316747D01*
X540526Y315697D01*
X541575D01*
X542100Y316222D01*
Y317271D01*
X541575Y317796D01*
X541050D01*
X540526Y317271D01*
Y315697D01*
X442424Y302701D02*
X442949Y303226D01*
Y304275D01*
X442424Y304800D01*
X440325D01*
X439800Y304275D01*
Y303226D01*
X440325Y302701D01*
X439800Y299552D02*
Y301651D01*
X441899Y299552D01*
X442424D01*
X442949Y300077D01*
Y301127D01*
X442424Y301651D01*
X442949Y298503D02*
Y296404D01*
X442424D01*
X440325Y298503D01*
X439800D01*
X451399Y261024D02*
X450874Y261549D01*
X449825D01*
X449300Y261024D01*
Y258925D01*
X449825Y258400D01*
X450874D01*
X451399Y258925D01*
X454548Y258400D02*
X452449D01*
X454548Y260499D01*
Y261024D01*
X454023Y261549D01*
X452973D01*
X452449Y261024D01*
X455597Y258925D02*
X456122Y258400D01*
X457171D01*
X457696Y258925D01*
Y261024D01*
X457171Y261549D01*
X456122D01*
X455597Y261024D01*
Y260499D01*
X456122Y259974D01*
X457696D01*
D33*
X391358Y277264D02*
G03*
X391358Y277264I-1181J0D01*
G01*
X476398Y206791D02*
G03*
X476398Y206791I-1181J0D01*
G01*
D47*
X285236Y326181D02*
G03*
X285236Y326181I-492J0D01*
G01*
X409547Y244488D02*
G03*
X409547Y244488I-492J0D01*
G01*
X385728Y268898D02*
G03*
X385728Y268898I-492J0D01*
G01*
X409543Y282900D02*
G03*
X409543Y282900I-492J0D01*
G01*
X470768Y198425D02*
G03*
X470768Y198425I-492J0D01*
G01*
D48*
X332365Y319599D02*
G03*
X332365Y319599I-197J0D01*
G01*
X322198Y243968D02*
G03*
X322198Y243968I-197J0D01*
G01*
X469685Y218307D02*
G03*
X469685Y218307I-197J0D01*
G01*
D49*
X292126Y313386D02*
Y316535D01*
X288189Y313386D02*
X292126D01*
Y322047D02*
Y325197D01*
X288189D02*
X292126D01*
X456496Y195866D02*
Y218307D01*
X467913Y195866D02*
Y218307D01*
X421752Y248130D02*
Y251280D01*
X410335Y248130D02*
Y251280D01*
X421752D01*
X410335Y248130D02*
X421752D01*
X386240Y273327D02*
X405925D01*
X386240Y285925D02*
X405925D01*
X386240Y273327D02*
Y285925D01*
X405925Y273327D02*
Y285925D01*
X421747Y286542D02*
Y289691D01*
X410330Y286542D02*
Y289691D01*
X421747D01*
X410330Y286542D02*
X421747D01*
X490965Y202854D02*
Y215453D01*
X471280Y202854D02*
Y215453D01*
X490965D01*
X471280Y202854D02*
X490965D01*
D50*
X371300Y214600D02*
Y226600D01*
Y214600D02*
X403300D01*
Y226600D01*
X371300D02*
X403300D01*
X371300D02*
Y229600D01*
X403300D01*
Y226600D02*
Y229600D01*
X398300Y226600D02*
X401300Y229600D01*
X392300Y226600D02*
X395300Y229600D01*
X386300Y226600D02*
X389300Y229600D01*
X380300Y226600D02*
X383300Y229600D01*
X374300Y226600D02*
X377300Y229600D01*
X377800Y311800D02*
Y323800D01*
Y311800D02*
X409800D01*
Y323800D01*
X377800D02*
X409800D01*
X377800D02*
Y326800D01*
X409800D01*
Y323800D02*
Y326800D01*
X404800Y323800D02*
X407800Y326800D01*
X398800Y323800D02*
X401800Y326800D01*
X392800Y323800D02*
X395800Y326800D01*
X386800Y323800D02*
X389800Y326800D01*
X380800Y323800D02*
X383800Y326800D01*
X445346Y206772D02*
Y229606D01*
X411882Y205197D02*
X445346D01*
X410701D02*
X411882D01*
X445346D02*
Y206772D01*
X410701Y205197D02*
Y229606D01*
X445346D01*
X450464Y308740D02*
Y331575D01*
X417000Y307165D02*
X450464D01*
X415819D02*
X417000D01*
X450464D02*
Y308740D01*
X415819Y307165D02*
Y331575D01*
X450464D01*
D51*
X469400Y245900D02*
Y249836D01*
X471368D01*
X472024Y249180D01*
Y247868D01*
X471368Y247212D01*
X469400D01*
X470712D02*
X472024Y245900D01*
X473336D02*
X474648D01*
X473992D01*
Y249836D01*
X473336Y249180D01*
X478583Y245900D02*
Y249836D01*
X476615Y247868D01*
X479239D01*
X484700Y245900D02*
Y249836D01*
X486668D01*
X487324Y249180D01*
Y247868D01*
X486668Y247212D01*
X484700D01*
X486012D02*
X487324Y245900D01*
X488636D02*
X489948D01*
X489292D01*
Y249836D01*
X488636Y249180D01*
X491916D02*
X492571Y249836D01*
X493883D01*
X494539Y249180D01*
Y248524D01*
X493883Y247868D01*
X493227D01*
X493883D01*
X494539Y247212D01*
Y246556D01*
X493883Y245900D01*
X492571D01*
X491916Y246556D01*
X455200Y233000D02*
X459136D01*
Y231032D01*
X458480Y230376D01*
X457168D01*
X456512Y231032D01*
Y233000D01*
Y231688D02*
X455200Y230376D01*
Y229064D02*
Y227752D01*
Y228408D01*
X459136D01*
X458480Y229064D01*
X455200Y225784D02*
Y224473D01*
Y225129D01*
X459136D01*
X458480Y225784D01*
X454000Y245900D02*
Y249836D01*
X455968D01*
X456624Y249180D01*
Y247868D01*
X455968Y247212D01*
X454000D01*
X455312D02*
X456624Y245900D01*
X457936D02*
X459248D01*
X458592D01*
Y249836D01*
X457936Y249180D01*
X461215D02*
X461871Y249836D01*
X463183D01*
X463839Y249180D01*
Y246556D01*
X463183Y245900D01*
X461871D01*
X461215Y246556D01*
Y249180D01*
X460236Y253937D02*
Y257873D01*
X462204D01*
X462860Y257217D01*
Y255905D01*
X462204Y255249D01*
X460236D01*
X461548D02*
X462860Y253937D01*
X464172Y254593D02*
X464828Y253937D01*
X466140D01*
X466796Y254593D01*
Y257217D01*
X466140Y257873D01*
X464828D01*
X464172Y257217D01*
Y256561D01*
X464828Y255905D01*
X466796D01*
X355700Y215900D02*
X351764D01*
Y217868D01*
X352420Y218524D01*
X353732D01*
X354388Y217868D01*
Y215900D01*
Y217212D02*
X355700Y218524D01*
X352420Y219836D02*
X351764Y220492D01*
Y221804D01*
X352420Y222460D01*
X353076D01*
X353732Y221804D01*
X354388Y222460D01*
X355044D01*
X355700Y221804D01*
Y220492D01*
X355044Y219836D01*
X354388D01*
X353732Y220492D01*
X353076Y219836D01*
X352420D01*
X353732Y220492D02*
Y221804D01*
X340945Y303937D02*
Y307873D01*
X342913D01*
X343569Y307217D01*
Y305905D01*
X342913Y305249D01*
X340945D01*
X342257D02*
X343569Y303937D01*
X344881Y307873D02*
X347504D01*
Y307217D01*
X344881Y304593D01*
Y303937D01*
X452362Y322835D02*
X456298D01*
Y320867D01*
X455642Y320211D01*
X454330D01*
X453674Y320867D01*
Y322835D01*
Y321523D02*
X452362Y320211D01*
X456298Y316275D02*
X455642Y317587D01*
X454330Y318899D01*
X453018D01*
X452362Y318243D01*
Y316931D01*
X453018Y316275D01*
X453674D01*
X454330Y316931D01*
Y318899D01*
X447638Y222047D02*
X451574D01*
Y220079D01*
X450918Y219423D01*
X449606D01*
X448950Y220079D01*
Y222047D01*
Y220735D02*
X447638Y219423D01*
X451574Y215488D02*
Y218111D01*
X449606D01*
X450262Y216800D01*
Y216144D01*
X449606Y215488D01*
X448294D01*
X447638Y216144D01*
Y217456D01*
X448294Y218111D01*
X368110Y302362D02*
Y306298D01*
X370078D01*
X370734Y305642D01*
Y304330D01*
X370078Y303674D01*
X368110D01*
X369422D02*
X370734Y302362D01*
X374670D02*
X372046D01*
X374670Y304986D01*
Y305642D01*
X374014Y306298D01*
X372702D01*
X372046Y305642D01*
X378513Y228714D02*
X374577D01*
Y230682D01*
X375233Y231338D01*
X376545D01*
X377201Y230682D01*
Y228714D01*
Y230026D02*
X378513Y231338D01*
Y232650D02*
Y233962D01*
Y233306D01*
X374577D01*
X375233Y232650D01*
X371857Y313732D02*
Y316355D01*
X371201Y317011D01*
X369889D01*
X369233Y316355D01*
Y313732D01*
X369889Y313076D01*
X371201D01*
X370545Y314387D02*
X371857Y313076D01*
X371201D02*
X371857Y313732D01*
X375793Y313076D02*
X373169D01*
X375793Y315699D01*
Y316355D01*
X375137Y317011D01*
X373825D01*
X373169Y316355D01*
X368376Y222830D02*
X365753D01*
X365096Y222174D01*
Y220862D01*
X365753Y220206D01*
X368376D01*
X369032Y220862D01*
Y222174D01*
X367720Y221518D02*
X369032Y222830D01*
Y222174D02*
X368376Y222830D01*
X369032Y224142D02*
Y225454D01*
Y224798D01*
X365096D01*
X365753Y224142D01*
X496063Y149211D02*
Y145276D01*
X498687D01*
X499999D02*
X501311D01*
X500655D01*
Y149211D01*
X499999Y148555D01*
X546676Y338864D02*
X547988D01*
X547332D01*
Y342144D01*
X547988Y342800D01*
X548644D01*
X549300Y342144D01*
X545364Y339520D02*
X544708Y338864D01*
X543396D01*
X542740Y339520D01*
Y340176D01*
X543396Y340832D01*
X544052D01*
X543396D01*
X542740Y341488D01*
Y342144D01*
X543396Y342800D01*
X544708D01*
X545364Y342144D01*
X267724Y241636D02*
X266412D01*
X267068D01*
Y238356D01*
X266412Y237700D01*
X265756D01*
X265100Y238356D01*
X271660Y237700D02*
X269036D01*
X271660Y240324D01*
Y240980D01*
X271004Y241636D01*
X269692D01*
X269036Y240980D01*
X479134Y211810D02*
X480446D01*
X479790D01*
Y207874D01*
X479134D01*
X480446D01*
X485038Y211154D02*
X484381Y211810D01*
X483070D01*
X482414Y211154D01*
Y208530D01*
X483070Y207874D01*
X484381D01*
X485038Y208530D01*
X488317Y207874D02*
Y211810D01*
X486349Y209842D01*
X488973D01*
X423225Y283294D02*
Y284606D01*
Y283950D01*
X427161D01*
Y283294D01*
Y284606D01*
X423881Y289197D02*
X423225Y288541D01*
Y287229D01*
X423881Y286574D01*
X426505D01*
X427161Y287229D01*
Y288541D01*
X426505Y289197D01*
X423881Y290509D02*
X423225Y291165D01*
Y292477D01*
X423881Y293133D01*
X424537D01*
X425193Y292477D01*
Y291821D01*
Y292477D01*
X425849Y293133D01*
X426505D01*
X427161Y292477D01*
Y291165D01*
X426505Y290509D01*
X393701Y282282D02*
X395013D01*
X394357D01*
Y278346D01*
X393701D01*
X395013D01*
X399604Y281626D02*
X398948Y282282D01*
X397637D01*
X396981Y281626D01*
Y279002D01*
X397637Y278346D01*
X398948D01*
X399604Y279002D01*
X403540Y278346D02*
X400916D01*
X403540Y280970D01*
Y281626D01*
X402884Y282282D01*
X401572D01*
X400916Y281626D01*
X423623Y246063D02*
Y247375D01*
Y246719D01*
X427559D01*
Y246063D01*
Y247375D01*
X424279Y251967D02*
X423623Y251311D01*
Y249999D01*
X424279Y249343D01*
X426903D01*
X427559Y249999D01*
Y251311D01*
X426903Y251967D01*
X427559Y253278D02*
Y254590D01*
Y253935D01*
X423623D01*
X424279Y253278D01*
X452362Y224408D02*
Y220472D01*
X454330D01*
X454986Y221128D01*
Y223752D01*
X454330Y224408D01*
X452362D01*
X456298Y223752D02*
X456954Y224408D01*
X458266D01*
X458922Y223752D01*
Y223096D01*
X458266Y222440D01*
X457610D01*
X458266D01*
X458922Y221784D01*
Y221128D01*
X458266Y220472D01*
X456954D01*
X456298Y221128D01*
X325100Y268536D02*
Y264600D01*
X327068D01*
X327724Y265256D01*
Y267880D01*
X327068Y268536D01*
X325100D01*
X331660Y264600D02*
X329036D01*
X331660Y267224D01*
Y267880D01*
X331004Y268536D01*
X329692D01*
X329036Y267880D01*
X326460Y310150D02*
X330396D01*
Y312118D01*
X329740Y312774D01*
X327116D01*
X326460Y312118D01*
Y310150D01*
X330396Y314086D02*
Y315398D01*
Y314742D01*
X326460D01*
X327116Y314086D01*
X556169Y327033D02*
X555513Y326377D01*
Y325065D01*
X556169Y324409D01*
X558793D01*
X559449Y325065D01*
Y326377D01*
X558793Y327033D01*
X559449Y328345D02*
Y329657D01*
Y329001D01*
X555513D01*
X556169Y328345D01*
X555513Y331625D02*
Y334249D01*
X556169D01*
X558793Y331625D01*
X559449D01*
X556563Y306167D02*
X555907Y305511D01*
Y304199D01*
X556563Y303543D01*
X559187D01*
X559842Y304199D01*
Y305511D01*
X559187Y306167D01*
X559842Y307479D02*
Y308791D01*
Y308135D01*
X555907D01*
X556563Y307479D01*
X555907Y313383D02*
X556563Y312071D01*
X557875Y310759D01*
X559187D01*
X559842Y311415D01*
Y312727D01*
X559187Y313383D01*
X558531D01*
X557875Y312727D01*
Y310759D01*
X375067Y268372D02*
X374411Y267716D01*
Y266404D01*
X375067Y265748D01*
X377691D01*
X378346Y266404D01*
Y267716D01*
X377691Y268372D01*
X378346Y269684D02*
Y270996D01*
Y270340D01*
X374411D01*
X375067Y269684D01*
X374411Y275587D02*
Y272964D01*
X376379D01*
X375723Y274275D01*
Y274931D01*
X376379Y275587D01*
X377691D01*
X378346Y274931D01*
Y273620D01*
X377691Y272964D01*
X405824Y310280D02*
X405168Y310936D01*
X403856D01*
X403200Y310280D01*
Y307656D01*
X403856Y307000D01*
X405168D01*
X405824Y307656D01*
X407136Y307000D02*
X408448D01*
X407792D01*
Y310936D01*
X407136Y310280D01*
X412383Y307000D02*
Y310936D01*
X410416Y308968D01*
X413039D01*
X403411Y237138D02*
X402755Y237794D01*
X401443D01*
X400787Y237138D01*
Y234514D01*
X401443Y233858D01*
X402755D01*
X403411Y234514D01*
X404723Y233858D02*
X406035D01*
X405379D01*
Y237794D01*
X404723Y237138D01*
X408003D02*
X408659Y237794D01*
X409971D01*
X410627Y237138D01*
Y236482D01*
X409971Y235826D01*
X409315D01*
X409971D01*
X410627Y235170D01*
Y234514D01*
X409971Y233858D01*
X408659D01*
X408003Y234514D01*
X486744Y324935D02*
X487400Y325591D01*
Y326903D01*
X486744Y327559D01*
X484121D01*
X483465Y326903D01*
Y325591D01*
X484121Y324935D01*
X483465Y323623D02*
Y322311D01*
Y322967D01*
X487400D01*
X486744Y323623D01*
X483465Y317720D02*
Y320343D01*
X486088Y317720D01*
X486744D01*
X487400Y318376D01*
Y319688D01*
X486744Y320343D01*
X527689Y324541D02*
X528345Y325198D01*
Y326509D01*
X527689Y327165D01*
X525065D01*
X524409Y326509D01*
Y325198D01*
X525065Y324541D01*
X524409Y323230D02*
Y321918D01*
Y322574D01*
X528345D01*
X527689Y323230D01*
X524409Y319950D02*
Y318638D01*
Y319294D01*
X528345D01*
X527689Y319950D01*
X555775Y277821D02*
X555119Y277165D01*
Y275853D01*
X555775Y275197D01*
X558399D01*
X559055Y275853D01*
Y277165D01*
X558399Y277821D01*
X559055Y279133D02*
Y280445D01*
Y279788D01*
X555119D01*
X555775Y279133D01*
Y282412D02*
X555119Y283068D01*
Y284380D01*
X555775Y285036D01*
X558399D01*
X559055Y284380D01*
Y283068D01*
X558399Y282412D01*
X555775D01*
Y261285D02*
X555119Y260629D01*
Y259317D01*
X555775Y258661D01*
X558399D01*
X559055Y259317D01*
Y260629D01*
X558399Y261285D01*
Y262597D02*
X559055Y263253D01*
Y264565D01*
X558399Y265221D01*
X555775D01*
X555119Y264565D01*
Y263253D01*
X555775Y262597D01*
X556431D01*
X557087Y263253D01*
Y265221D01*
X505773Y203674D02*
X505118Y204329D01*
X503806D01*
X503150Y203674D01*
Y201050D01*
X503806Y200394D01*
X505118D01*
X505773Y201050D01*
X507085Y203674D02*
X507741Y204329D01*
X509053D01*
X509709Y203674D01*
Y203017D01*
X509053Y202362D01*
X509709Y201706D01*
Y201050D01*
X509053Y200394D01*
X507741D01*
X507085Y201050D01*
Y201706D01*
X507741Y202362D01*
X507085Y203017D01*
Y203674D01*
X507741Y202362D02*
X509053D01*
X519028Y189896D02*
X519684Y190552D01*
Y191864D01*
X519028Y192520D01*
X516404D01*
X515748Y191864D01*
Y190552D01*
X516404Y189896D01*
X519684Y185960D02*
X519028Y187272D01*
X517716Y188584D01*
X516404D01*
X515748Y187928D01*
Y186616D01*
X516404Y185960D01*
X517060D01*
X517716Y186616D01*
Y188584D01*
X498876Y228720D02*
X499532Y228064D01*
X500844D01*
X501500Y228720D01*
Y231344D01*
X500844Y232000D01*
X499532D01*
X498876Y231344D01*
X494940Y228064D02*
X497564D01*
Y230032D01*
X496252Y229376D01*
X495596D01*
X494940Y230032D01*
Y231344D01*
X495596Y232000D01*
X496908D01*
X497564Y231344D01*
X330431Y219026D02*
X331087Y219682D01*
Y220994D01*
X330431Y221650D01*
X327807D01*
X327151Y220994D01*
Y219682D01*
X327807Y219026D01*
X327151Y215746D02*
X331087D01*
X329119Y217714D01*
Y215090D01*
X328214Y298162D02*
X327558Y298818D01*
X326247D01*
X325590Y298162D01*
Y295538D01*
X326247Y294882D01*
X327558D01*
X328214Y295538D01*
X329526Y298162D02*
X330182Y298818D01*
X331494D01*
X332150Y298162D01*
Y297506D01*
X331494Y296850D01*
X330838D01*
X331494D01*
X332150Y296194D01*
Y295538D01*
X331494Y294882D01*
X330182D01*
X329526Y295538D01*
X438124Y261280D02*
X437468Y261936D01*
X436156D01*
X435500Y261280D01*
Y258656D01*
X436156Y258000D01*
X437468D01*
X438124Y258656D01*
X442060Y258000D02*
X439436D01*
X442060Y260624D01*
Y261280D01*
X441404Y261936D01*
X440092D01*
X439436Y261280D01*
X443371D02*
X444027Y261936D01*
X445339D01*
X445995Y261280D01*
Y260624D01*
X445339Y259968D01*
X445995Y259312D01*
Y258656D01*
X445339Y258000D01*
X444027D01*
X443371Y258656D01*
Y259312D01*
X444027Y259968D01*
X443371Y260624D01*
Y261280D01*
X444027Y259968D02*
X445339D01*
M02*
