G04 Layer_Color=8421504*
%FSLAX25Y25*%
%MOIN*%
G70*
G01*
G75*
%ADD10R,0.13386X0.06299*%
%ADD11R,0.03740X0.02362*%
%ADD12R,0.07087X0.02756*%
%ADD13R,0.02756X0.07087*%
%ADD14R,0.04528X0.05709*%
%ADD15R,0.05709X0.04528*%
%ADD16R,0.03150X0.07480*%
%ADD17R,0.07480X0.03150*%
%ADD18R,0.07480X0.07874*%
%ADD19O,0.01968X0.04134*%
%ADD20O,0.02362X0.05709*%
%ADD21R,0.11417X0.21260*%
%ADD22R,0.05512X0.03740*%
%ADD23R,0.03740X0.05512*%
%ADD24R,0.13780X0.20079*%
%ADD25R,0.06299X0.13386*%
D10*
X272441Y297244D02*
D03*
Y321654D02*
D03*
X307900Y312491D02*
D03*
Y336900D02*
D03*
X343701Y273622D02*
D03*
Y298031D02*
D03*
D11*
X293996Y319291D02*
D03*
X284744Y315748D02*
D03*
Y322835D02*
D03*
D12*
X328740Y283465D02*
D03*
Y290158D02*
D03*
D13*
X336600Y218500D02*
D03*
X343293D02*
D03*
D14*
X487943Y229600D02*
D03*
X480857D02*
D03*
X518110Y323622D02*
D03*
X511024D02*
D03*
X493307D02*
D03*
X500394D02*
D03*
X417323Y235827D02*
D03*
X424409D02*
D03*
X413098Y301681D02*
D03*
X406012D02*
D03*
X317457Y194000D02*
D03*
X324543D02*
D03*
X427357Y301800D02*
D03*
X434443D02*
D03*
D15*
X510630Y185433D02*
D03*
Y192520D02*
D03*
X497244Y206693D02*
D03*
Y199606D02*
D03*
X565354Y257087D02*
D03*
Y264173D02*
D03*
Y283858D02*
D03*
Y276772D02*
D03*
X379134Y289370D02*
D03*
Y282283D02*
D03*
X565354Y305512D02*
D03*
Y312598D02*
D03*
Y332677D02*
D03*
Y325590D02*
D03*
X449700Y244357D02*
D03*
Y251443D02*
D03*
X440200Y244457D02*
D03*
Y251543D02*
D03*
X533800Y311157D02*
D03*
Y318243D02*
D03*
D16*
X348900Y313300D02*
D03*
X333939D02*
D03*
D17*
X328300Y260700D02*
D03*
Y245739D02*
D03*
D18*
X462205Y214567D02*
D03*
Y199606D02*
D03*
D19*
X419882Y254921D02*
D03*
X417323D02*
D03*
X414764D02*
D03*
X412205D02*
D03*
X419882Y244488D02*
D03*
X417323D02*
D03*
X414764D02*
D03*
X412205D02*
D03*
X419877Y293333D02*
D03*
X417318D02*
D03*
X414759D02*
D03*
X412200D02*
D03*
X419877Y282900D02*
D03*
X417318D02*
D03*
X414759D02*
D03*
X412200D02*
D03*
D20*
X388583Y268898D02*
D03*
X393583D02*
D03*
X398583D02*
D03*
X403583D02*
D03*
X388583Y290354D02*
D03*
X393583D02*
D03*
X398583D02*
D03*
X403583D02*
D03*
X488622Y219882D02*
D03*
X483622D02*
D03*
X478622D02*
D03*
X473622D02*
D03*
X488622Y198425D02*
D03*
X483622D02*
D03*
X478622D02*
D03*
X473622D02*
D03*
D21*
X496850Y167323D02*
D03*
X458268D02*
D03*
D22*
X379300Y238163D02*
D03*
Y246037D02*
D03*
D23*
X387402Y304724D02*
D03*
X379528D02*
D03*
X471654Y255906D02*
D03*
X479528D02*
D03*
X456993Y238889D02*
D03*
X464867D02*
D03*
X463963Y229600D02*
D03*
X471837D02*
D03*
X495576Y238889D02*
D03*
X487702D02*
D03*
X472347D02*
D03*
X480221D02*
D03*
D24*
X420079Y217323D02*
D03*
X436291D02*
D03*
X425197Y319291D02*
D03*
X441409D02*
D03*
D25*
X328300Y233400D02*
D03*
X352710D02*
D03*
M02*
