G04 Layer_Color=32896*
%FSLAX25Y25*%
%MOIN*%
G70*
G01*
G75*
%ADD30C,0.01181*%
%ADD31C,0.01000*%
%ADD48C,0.00394*%
%ADD49C,0.00787*%
%ADD51C,0.00591*%
D30*
X323307Y245827D02*
Y316827D01*
X319835Y245496D02*
Y316496D01*
X368504Y241732D02*
Y333071D01*
X275984Y241732D02*
X368504D01*
X275984D02*
Y333071D01*
X368504D01*
X566142Y294488D02*
X593701D01*
Y247244D02*
Y294488D01*
X566142Y247244D02*
Y294488D01*
Y247244D02*
X593701D01*
X479134Y304331D02*
Y331890D01*
X526378D01*
X479134Y304331D02*
X526378D01*
Y331890D01*
X566142Y343701D02*
X593701D01*
Y296457D02*
Y343701D01*
X566142Y296457D02*
Y343701D01*
Y296457D02*
X593701D01*
D31*
X337717Y283465D02*
G03*
X337717Y263465I0J-10000D01*
G01*
Y303465D02*
G03*
X337717Y283465I0J-10000D01*
G01*
X307716Y253465D02*
G03*
X307716Y273465I0J10000D01*
G01*
D02*
G03*
X307716Y293465I0J10000D01*
G01*
D02*
G03*
X307716Y313465I0J10000D01*
G01*
X461798Y136100D02*
Y140037D01*
X459830Y138069D02*
X463767D01*
X448019Y132163D02*
X520854D01*
X448019D02*
Y266021D01*
X520854Y132163D02*
Y266021D01*
Y264053D02*
Y293580D01*
X512487D02*
X520854D01*
X448806D02*
X466227D01*
X448019Y266021D02*
Y289643D01*
X466227Y293580D02*
X512487D01*
X448019Y289643D02*
Y293580D01*
X449987D01*
X385898Y136500D02*
Y140437D01*
X383930Y138469D02*
X387867D01*
X372119Y132563D02*
X444954D01*
X372119D02*
Y266421D01*
X444954Y132563D02*
Y266421D01*
Y264453D02*
Y293980D01*
X436587D02*
X444954D01*
X372906D02*
X390328D01*
X372119Y266421D02*
Y290043D01*
X390328Y293980D02*
X436587D01*
X372119Y290043D02*
Y293980D01*
X374087D01*
X562598Y245669D02*
X594488D01*
Y203937D02*
Y245669D01*
X562598Y203937D02*
X594488D01*
X562598D02*
Y245669D01*
X361500Y337349D02*
X359401D01*
X360451D01*
Y334200D01*
X358351D02*
Y337349D01*
X356777D01*
X356252Y336824D01*
Y335774D01*
X356777Y335249D01*
X358351D01*
X357302D02*
X356252Y334200D01*
X355203D02*
X354153D01*
X354678D01*
Y337349D01*
X355203Y336824D01*
D48*
X262520Y303937D02*
G03*
X262520Y303937I-197J0D01*
G01*
D49*
X274882Y285827D02*
Y303937D01*
X263897Y285827D02*
Y303937D01*
D51*
X591776Y252736D02*
X593088D01*
X592432D01*
Y249456D01*
X593088Y248800D01*
X593744D01*
X594400Y249456D01*
X590464Y248800D02*
X589152D01*
X589808D01*
Y252736D01*
X590464Y252080D01*
X560238Y342126D02*
Y340814D01*
Y341470D01*
X564173D01*
Y342126D01*
Y340814D01*
X560893Y336222D02*
X560238Y336878D01*
Y338190D01*
X560893Y338846D01*
X563517D01*
X564173Y338190D01*
Y336878D01*
X563517Y336222D01*
X560238Y334910D02*
Y332287D01*
X560893D01*
X563517Y334910D01*
X564173D01*
X489200Y297964D02*
X490512D01*
X489856D01*
Y301900D01*
X489200D01*
X490512D01*
X495104Y298620D02*
X494448Y297964D01*
X493136D01*
X492480Y298620D01*
Y301244D01*
X493136Y301900D01*
X494448D01*
X495104Y301244D01*
X499039Y297964D02*
X497727Y298620D01*
X496416Y299932D01*
Y301244D01*
X497072Y301900D01*
X498383D01*
X499039Y301244D01*
Y300588D01*
X498383Y299932D01*
X496416D01*
X560631Y294094D02*
Y292783D01*
Y293439D01*
X564567D01*
Y294094D01*
Y292783D01*
X561287Y288191D02*
X560631Y288847D01*
Y290159D01*
X561287Y290815D01*
X563911D01*
X564567Y290159D01*
Y288847D01*
X563911Y288191D01*
X560631Y284255D02*
Y286879D01*
X562599D01*
X561943Y285567D01*
Y284911D01*
X562599Y284255D01*
X563911D01*
X564567Y284911D01*
Y286223D01*
X563911Y286879D01*
X275400Y314936D02*
Y311000D01*
X273432D01*
X272776Y311656D01*
Y314280D01*
X273432Y314936D01*
X275400D01*
X269496Y311000D02*
Y314936D01*
X271464Y312968D01*
X268840D01*
X415952Y137811D02*
X416608Y138467D01*
X417920D01*
X418576Y137811D01*
Y135187D01*
X417920Y134531D01*
X416608D01*
X415952Y135187D01*
X412016Y134531D02*
X414640D01*
X412016Y137155D01*
Y137811D01*
X412672Y138467D01*
X413984D01*
X414640Y137811D01*
X410704D02*
X410048Y138467D01*
X408736D01*
X408080Y137811D01*
Y137155D01*
X408736Y136499D01*
X409392D01*
X408736D01*
X408080Y135843D01*
Y135187D01*
X408736Y134531D01*
X410048D01*
X410704Y135187D01*
X492245Y137411D02*
X492901Y138067D01*
X494213D01*
X494869Y137411D01*
Y134787D01*
X494213Y134132D01*
X492901D01*
X492245Y134787D01*
X488310Y134132D02*
X490934D01*
X488310Y136755D01*
Y137411D01*
X488966Y138067D01*
X490278D01*
X490934Y137411D01*
X484374Y134132D02*
X486998D01*
X484374Y136755D01*
Y137411D01*
X485030Y138067D01*
X486342D01*
X486998Y137411D01*
M02*
